<svg xmlns="http://www.w3.org/2000/svg" viewBox="0 0 500 500"><g id="freepik--background-complete--inject-7"><rect y="382.4" width="500" height="0.25" style="fill:#ebebeb"></rect><rect x="416.78" y="398.49" width="33.12" height="0.25" style="fill:#ebebeb"></rect><rect x="322.53" y="401.21" width="8.69" height="0.25" style="fill:#ebebeb"></rect><rect x="396.59" y="389.21" width="19.19" height="0.25" style="fill:#ebebeb"></rect><rect x="52.46" y="390.89" width="43.19" height="0.25" style="fill:#ebebeb"></rect><rect x="104.56" y="390.89" width="6.33" height="0.25" style="fill:#ebebeb"></rect><rect x="131.47" y="395.11" width="93.68" height="0.25" style="fill:#ebebeb"></rect><path d="M237,337.8H43.91a5.71,5.71,0,0,1-5.7-5.71V60.66A5.71,5.71,0,0,1,43.91,55H237a5.71,5.71,0,0,1,5.71,5.71V332.09A5.71,5.71,0,0,1,237,337.8ZM43.91,55.2a5.46,5.46,0,0,0-5.45,5.46V332.09a5.46,5.46,0,0,0,5.45,5.46H237a5.47,5.47,0,0,0,5.46-5.46V60.66A5.47,5.47,0,0,0,237,55.2Z" style="fill:#ebebeb"></path><path d="M453.31,337.8H260.21a5.72,5.72,0,0,1-5.71-5.71V60.66A5.72,5.72,0,0,1,260.21,55h193.1A5.71,5.71,0,0,1,459,60.66V332.09A5.71,5.71,0,0,1,453.31,337.8ZM260.21,55.2a5.47,5.47,0,0,0-5.46,5.46V332.09a5.47,5.47,0,0,0,5.46,5.46h193.1a5.47,5.47,0,0,0,5.46-5.46V60.66a5.47,5.47,0,0,0-5.46-5.46Z" style="fill:#ebebeb"></path><rect x="339.4" y="238.05" width="22.3" height="9.49" style="fill:#fafafa"></rect><rect x="312.41" y="238.05" width="22.3" height="9.49" style="fill:#fafafa"></rect><rect x="285.43" y="238.05" width="22.3" height="9.49" style="fill:#fafafa"></rect><rect x="352.89" y="251.26" width="22.3" height="9.49" style="fill:#fafafa"></rect><rect x="325.91" y="251.26" width="22.3" height="9.49" style="fill:#fafafa"></rect><rect x="298.92" y="251.26" width="22.3" height="9.49" style="fill:#fafafa"></rect><rect x="271.94" y="251.26" width="22.3" height="9.49" style="fill:#fafafa"></rect><rect x="396.38" y="264.46" width="22.3" height="9.49" style="fill:#fafafa"></rect><rect x="369.4" y="264.46" width="22.3" height="9.49" style="fill:#fafafa"></rect><rect x="312.41" y="264.46" width="22.3" height="9.49" style="fill:#fafafa"></rect><rect x="285.43" y="264.46" width="22.3" height="9.49" style="fill:#fafafa"></rect><rect x="258.45" y="264.46" width="22.3" height="9.49" style="fill:#fafafa"></rect><rect x="382.89" y="277.67" width="22.3" height="9.49" style="fill:#fafafa"></rect><rect x="325.91" y="277.67" width="22.3" height="9.49" style="fill:#fafafa"></rect><rect x="298.92" y="277.67" width="22.3" height="9.49" style="fill:#fafafa"></rect><rect x="271.94" y="277.67" width="22.3" height="9.49" style="fill:#fafafa"></rect><rect x="166.7" y="103.5" width="22.3" height="9.49" style="fill:#fafafa"></rect><rect x="139.72" y="103.5" width="22.3" height="9.49" style="fill:#fafafa"></rect><rect x="180.19" y="116.7" width="22.3" height="9.49" style="fill:#fafafa"></rect><rect x="153.21" y="116.7" width="22.3" height="9.49" style="fill:#fafafa"></rect><rect x="99.24" y="116.7" width="22.3" height="9.49" style="fill:#fafafa"></rect><rect x="72.26" y="116.7" width="22.3" height="9.49" style="fill:#fafafa"></rect><rect x="139.72" y="129.91" width="22.3" height="9.49" style="fill:#fafafa"></rect><rect x="385.33" y="180.8" width="22.3" height="9.49" style="fill:#fafafa"></rect><rect x="338.35" y="180.8" width="22.3" height="9.49" style="fill:#fafafa"></rect><rect x="398.82" y="194.01" width="22.3" height="9.49" style="fill:#fafafa"></rect><rect x="371.84" y="194.01" width="22.3" height="9.49" style="fill:#fafafa"></rect><rect x="141.62" y="167.47" width="22.3" height="9.49" style="fill:#fafafa"></rect><rect x="84.63" y="167.47" width="22.3" height="9.49" style="fill:#fafafa"></rect><rect x="155.11" y="180.68" width="22.3" height="9.49" style="fill:#fafafa"></rect><rect x="118.12" y="180.68" width="22.3" height="9.49" style="fill:#fafafa"></rect><rect x="385.33" y="207.21" width="22.3" height="9.49" style="fill:#fafafa"></rect><rect x="338.35" y="207.21" width="22.3" height="9.49" style="fill:#fafafa"></rect><rect x="85.75" y="129.91" width="22.3" height="9.49" style="fill:#fafafa"></rect><rect x="401.67" y="103.85" width="22.3" height="9.49" style="fill:#fafafa"></rect><rect x="374.69" y="103.85" width="22.3" height="9.49" style="fill:#fafafa"></rect><rect x="388.18" y="117.06" width="22.3" height="9.49" style="fill:#fafafa"></rect><rect x="280.8" y="104.06" width="22.3" height="9.49" style="fill:#fafafa"></rect><rect x="253.82" y="104.06" width="22.3" height="9.49" style="fill:#fafafa"></rect><rect x="294.3" y="117.27" width="22.3" height="9.49" style="fill:#fafafa"></rect><rect x="267.31" y="117.27" width="22.3" height="9.49" style="fill:#fafafa"></rect><rect x="240.33" y="117.27" width="22.3" height="9.49" style="fill:#fafafa"></rect><rect x="307.79" y="130.48" width="22.3" height="9.49" style="fill:#fafafa"></rect><rect x="280.8" y="130.48" width="22.3" height="9.49" style="fill:#fafafa"></rect><rect x="253.82" y="130.48" width="22.3" height="9.49" style="fill:#fafafa"></rect><rect x="294.3" y="143.68" width="22.3" height="9.49" style="fill:#fafafa"></rect><rect x="267.31" y="143.68" width="22.3" height="9.49" style="fill:#fafafa"></rect><rect x="112.94" y="234.46" width="22.3" height="9.49" style="fill:#fafafa"></rect><rect x="85.96" y="234.46" width="22.3" height="9.49" style="fill:#fafafa"></rect><rect x="190.4" y="235.67" width="22.3" height="9.49" style="fill:#fafafa"></rect><rect x="126.43" y="247.67" width="22.3" height="9.49" style="fill:#fafafa"></rect><rect x="99.45" y="247.67" width="22.3" height="9.49" style="fill:#fafafa"></rect><rect x="203.89" y="248.88" width="22.3" height="9.49" style="fill:#fafafa"></rect><rect x="176.91" y="248.88" width="22.3" height="9.49" style="fill:#fafafa"></rect><rect x="248.51" y="206.18" width="22.3" height="9.49" style="fill:#fafafa"></rect><rect x="108.61" y="199.89" width="22.3" height="9.49" style="fill:#fafafa"></rect><rect x="218.1" y="159.34" width="22.3" height="9.49" style="fill:#fafafa"></rect><rect x="235.02" y="192.97" width="22.3" height="9.49" style="fill:#fafafa"></rect><rect x="262" y="192.97" width="22.3" height="9.49" style="fill:#fafafa"></rect><rect x="363.29" y="373.27" width="22.3" height="9.49" style="fill:#fafafa"></rect><rect x="376.78" y="360.06" width="22.3" height="9.49" style="fill:#fafafa"></rect><rect x="112.94" y="260.88" width="22.3" height="9.49" style="fill:#fafafa"></rect><rect x="85.96" y="260.88" width="22.3" height="9.49" style="fill:#fafafa"></rect><rect x="126.43" y="274.08" width="22.3" height="9.49" style="fill:#fafafa"></rect><rect x="99.45" y="274.08" width="22.3" height="9.49" style="fill:#fafafa"></rect><rect x="155.28" y="310.62" width="22.3" height="9.49" style="fill:#fafafa"></rect><rect x="128.3" y="310.62" width="22.3" height="9.49" style="fill:#fafafa"></rect><rect x="101.32" y="310.62" width="22.3" height="9.49" style="fill:#fafafa"></rect><rect x="74.34" y="310.62" width="22.3" height="9.49" style="fill:#fafafa"></rect><rect x="168.77" y="323.82" width="22.3" height="9.49" style="fill:#fafafa"></rect><rect x="141.79" y="323.82" width="22.3" height="9.49" style="fill:#fafafa"></rect><rect x="87.83" y="323.82" width="22.3" height="9.49" style="fill:#fafafa"></rect><rect x="182.26" y="337.03" width="22.3" height="9.49" style="fill:#fafafa"></rect><rect x="155.28" y="337.03" width="22.3" height="9.49" style="fill:#fafafa"></rect><rect x="128.3" y="337.03" width="22.3" height="9.49" style="fill:#fafafa"></rect><rect x="168.77" y="350.24" width="22.3" height="9.49" style="fill:#fafafa"></rect><rect x="141.79" y="350.24" width="22.3" height="9.49" style="fill:#fafafa"></rect><rect x="114.81" y="350.24" width="22.3" height="9.49" style="fill:#fafafa"></rect><rect x="337.82" y="310.01" width="22.3" height="9.49" style="fill:#fafafa"></rect><rect x="280.84" y="310.01" width="22.3" height="9.49" style="fill:#fafafa"></rect><rect x="253.85" y="310.01" width="22.3" height="9.49" style="fill:#fafafa"></rect><rect x="351.31" y="323.21" width="22.3" height="9.49" style="fill:#fafafa"></rect><rect x="294.33" y="323.21" width="22.3" height="9.49" style="fill:#fafafa"></rect><rect x="267.35" y="323.21" width="22.3" height="9.49" style="fill:#fafafa"></rect><rect x="240.36" y="323.21" width="22.3" height="9.49" style="fill:#fafafa"></rect><rect x="364.8" y="336.42" width="22.3" height="9.49" style="fill:#fafafa"></rect><rect x="337.82" y="336.42" width="22.3" height="9.49" style="fill:#fafafa"></rect><rect x="280.84" y="336.42" width="22.3" height="9.49" style="fill:#fafafa"></rect><rect x="253.85" y="336.42" width="22.3" height="9.49" style="fill:#fafafa"></rect><rect x="321.31" y="349.63" width="22.3" height="9.49" style="fill:#fafafa"></rect><rect x="294.33" y="349.63" width="22.3" height="9.49" style="fill:#fafafa"></rect><rect x="267.35" y="349.63" width="22.3" height="9.49" style="fill:#fafafa"></rect><rect x="240.36" y="349.63" width="22.3" height="9.49" style="fill:#fafafa"></rect><rect x="311.72" y="155.65" width="96.32" height="110.17" transform="translate(719.75 421.47) rotate(180)" style="fill:#e0e0e0"></rect><rect x="311.89" y="155.65" width="92.61" height="110.17" transform="translate(716.4 421.47) rotate(180)" style="fill:#e0e0e0"></rect><rect x="308.71" y="155.65" width="96.32" height="110.17" transform="translate(713.74 421.47) rotate(180)" style="fill:#f0f0f0"></rect><rect x="313.08" y="159.16" width="87.74" height="101.6" transform="translate(713.91 419.92) rotate(180)" style="fill:#fff"></rect><rect x="313.08" y="159.16" width="2.74" height="101.6" transform="translate(628.91 419.92) rotate(180)" style="fill:#e0e0e0"></rect><rect x="356.93" y="190.82" width="2.74" height="85.54" transform="translate(124.71 591.89) rotate(-90)" style="fill:#e0e0e0"></rect><rect x="313.08" y="227.62" width="89.21" height="4.6" transform="translate(715.38 459.85) rotate(180)" style="fill:#f0f0f0"></rect><rect x="108.59" y="155.65" width="96.32" height="110.17" transform="translate(313.49 421.47) rotate(180)" style="fill:#e0e0e0"></rect><rect x="108.77" y="155.65" width="92.61" height="110.17" transform="translate(310.15 421.47) rotate(180)" style="fill:#e0e0e0"></rect><rect x="105.59" y="155.65" width="96.32" height="110.17" transform="translate(307.49 421.47) rotate(180)" style="fill:#f0f0f0"></rect><rect x="109.96" y="159.16" width="87.74" height="101.6" transform="translate(307.65 419.92) rotate(180)" style="fill:#fff"></rect><rect x="109.96" y="159.16" width="2.74" height="101.6" transform="translate(222.65 419.92) rotate(180)" style="fill:#e0e0e0"></rect><rect x="153.8" y="190.82" width="2.74" height="85.54" transform="translate(-78.42 388.76) rotate(-90)" style="fill:#e0e0e0"></rect><rect x="109.96" y="227.62" width="89.21" height="4.6" transform="translate(309.12 459.85) rotate(180)" style="fill:#f0f0f0"></rect></g><g id="freepik--Shadow--inject-7"><ellipse id="freepik--path--inject-7" cx="250" cy="416.24" rx="193.89" ry="11.32" style="fill:#f5f5f5"></ellipse></g><g id="freepik--Stanchion--inject-7"><path d="M140.87,330.71a137.87,137.87,0,0,1-23.48-2c-21.24-3.7-35.16-10.95-35.74-11.26L84,312.27c.55.29,55.16,28.34,110.72,0l2.31,5.17A122.71,122.71,0,0,1,140.87,330.71Z" style="fill:#407BFF"></path><path d="M254.44,330.71a138.09,138.09,0,0,1-23.49-2c-21.23-3.7-35.15-10.95-35.73-11.26l2.37-5.14c.55.29,55.16,28.34,110.72,0l2.31,5.17A122.74,122.74,0,0,1,254.44,330.71Z" style="fill:#407BFF"></path><path d="M366.61,330.71a137.87,137.87,0,0,1-23.48-2c-21.24-3.7-35.16-10.95-35.74-11.26l2.37-5.14c.55.29,55.16,28.34,110.72,0l2.31,5.17A122.68,122.68,0,0,1,366.61,330.71Z" style="fill:#407BFF"></path><g style="opacity:0.30000000000000004"><path d="M140.87,330.71a137.87,137.87,0,0,1-23.48-2c-21.24-3.7-35.16-10.95-35.74-11.26L84,312.27c.55.29,55.16,28.34,110.72,0l2.31,5.17A122.71,122.71,0,0,1,140.87,330.71Z"></path></g><g style="opacity:0.30000000000000004"><path d="M254.44,330.71a138.09,138.09,0,0,1-23.49-2c-21.23-3.7-35.15-10.95-35.73-11.26l2.37-5.14c.55.29,55.16,28.34,110.72,0l2.31,5.17A122.74,122.74,0,0,1,254.44,330.71Z"></path></g><g style="opacity:0.30000000000000004"><path d="M366.61,330.71a137.87,137.87,0,0,1-23.48-2c-21.24-3.7-35.16-10.95-35.74-11.26l2.37-5.14c.55.29,55.16,28.34,110.72,0l2.31,5.17A122.68,122.68,0,0,1,366.61,330.71Z"></path></g><rect x="78.88" y="307.2" width="7.91" height="109.04" style="fill:#263238"></rect><rect x="191.94" y="307.2" width="7.91" height="109.04" style="fill:#263238"></rect><rect x="305" y="307.2" width="7.91" height="109.04" style="fill:#263238"></rect><rect x="418.06" y="307.2" width="7.91" height="109.04" style="fill:#263238"></rect><g style="opacity:0.7000000000000001"><rect x="78.88" y="307.2" width="7.91" height="109.04" style="fill:#fff"></rect></g><g style="opacity:0.7000000000000001"><rect x="191.94" y="307.2" width="7.91" height="109.04" style="fill:#fff"></rect></g><g style="opacity:0.7000000000000001"><rect x="305" y="307.2" width="7.91" height="109.04" style="fill:#fff"></rect></g><g style="opacity:0.7000000000000001"><rect x="418.06" y="307.2" width="7.91" height="109.04" style="fill:#fff"></rect></g><polygon points="95.14 415.11 86.79 412.24 78.88 412.24 70.53 415.11 70.53 416.24 95.14 416.24 95.14 415.11" style="fill:#263238"></polygon><polygon points="208.2 415.11 199.85 412.24 191.94 412.24 183.59 415.11 183.59 416.24 208.2 416.24 208.2 415.11" style="fill:#263238"></polygon><polygon points="321.26 415.11 312.91 412.24 305 412.24 296.65 415.11 296.65 416.24 321.26 416.24 321.26 415.11" style="fill:#263238"></polygon><polygon points="434.32 415.11 425.97 412.24 418.06 412.24 409.71 415.11 409.71 416.24 434.32 416.24 434.32 415.11" style="fill:#263238"></polygon><g style="opacity:0.6000000000000001"><polygon points="95.14 415.11 86.79 412.24 78.88 412.24 70.53 415.11 70.53 416.24 95.14 416.24 95.14 415.11" style="fill:#fff"></polygon></g><g style="opacity:0.6000000000000001"><polygon points="208.2 415.11 199.85 412.24 191.94 412.24 183.59 415.11 183.59 416.24 208.2 416.24 208.2 415.11" style="fill:#fff"></polygon></g><g style="opacity:0.6000000000000001"><polygon points="321.26 415.11 312.91 412.24 305 412.24 296.65 415.11 296.65 416.24 321.26 416.24 321.26 415.11" style="fill:#fff"></polygon></g><g style="opacity:0.6000000000000001"><polygon points="434.32 415.11 425.97 412.24 418.06 412.24 409.71 415.11 409.71 416.24 434.32 416.24 434.32 415.11" style="fill:#fff"></polygon></g></g><g id="freepik--Folder--inject-7"><path d="M286.19,266.16a10.7,10.7,0,0,1-5.34-1.44L276.11,262a10.72,10.72,0,0,1-3.92-14.63h0a10.71,10.71,0,0,1,14.62-3.92l4.75,2.74a10.71,10.71,0,0,1-5.37,20Zm-4.72-18.79a5.33,5.33,0,0,0-4.63,2.67h0a5.34,5.34,0,0,0,2,7.29l4.75,2.74a5.34,5.34,0,0,0,5.34-9.24l-4.76-2.74A5.21,5.21,0,0,0,281.47,247.37Zm-7,1.33h0Z" style="fill:#263238"></path><g style="opacity:0.4"><path d="M286.19,266.16a10.7,10.7,0,0,1-5.34-1.44L276.11,262a10.72,10.72,0,0,1-3.92-14.63h0a10.71,10.71,0,0,1,14.62-3.92l4.75,2.74a10.71,10.71,0,0,1-5.37,20Zm-4.72-18.79a5.33,5.33,0,0,0-4.63,2.67h0a5.34,5.34,0,0,0,2,7.29l4.75,2.74a5.34,5.34,0,0,0,5.34-9.24l-4.76-2.74A5.21,5.21,0,0,0,281.47,247.37Zm-7,1.33h0Z" style="fill:#fff"></path></g><path d="M289.07,279.85a10.64,10.64,0,0,1-1.59-.12h0a10.7,10.7,0,0,1-9-12.16l.81-5.42a10.7,10.7,0,1,1,21.17,3.14l-.8,5.43a10.7,10.7,0,0,1-10.57,9.13Zm.77-21.46a5.34,5.34,0,0,0-5.26,4.55l-.81,5.42a5.33,5.33,0,0,0,4.49,6.06h0a5.33,5.33,0,0,0,6.06-4.49l.8-5.42a5.34,5.34,0,0,0-4.49-6.07A7.16,7.16,0,0,0,289.84,258.39Z" style="fill:#263238"></path><g style="opacity:0.6000000000000001"><path d="M289.07,279.85a10.64,10.64,0,0,1-1.59-.12h0a10.7,10.7,0,0,1-9-12.16l.81-5.42a10.7,10.7,0,1,1,21.17,3.14l-.8,5.43a10.7,10.7,0,0,1-10.57,9.13Zm.77-21.46a5.34,5.34,0,0,0-5.26,4.55l-.81,5.42a5.33,5.33,0,0,0,4.49,6.06h0a5.33,5.33,0,0,0,6.06-4.49l.8-5.42a5.34,5.34,0,0,0-4.49-6.07A7.16,7.16,0,0,0,289.84,258.39Z" style="fill:#fff"></path></g><path d="M108.54,271.56a10.69,10.69,0,0,1-7.1-2.69h0a10.71,10.71,0,0,1-.9-15.12l3.64-4.1a10.7,10.7,0,1,1,16,14.21L116.55,268A10.66,10.66,0,0,1,108.54,271.56Zm3.65-20.14a5.31,5.31,0,0,0-4,1.8l-3.64,4.1a5.33,5.33,0,0,0,.44,7.53h0a5.34,5.34,0,0,0,7.53-.45l3.64-4.1a5.34,5.34,0,0,0-4-8.88Z" style="fill:#263238"></path><g style="opacity:0.6000000000000001"><path d="M108.54,271.56a10.69,10.69,0,0,1-7.1-2.69h0a10.71,10.71,0,0,1-.9-15.12l3.64-4.1a10.7,10.7,0,1,1,16,14.21L116.55,268A10.66,10.66,0,0,1,108.54,271.56Zm3.65-20.14a5.31,5.31,0,0,0-4,1.8l-3.64,4.1a5.33,5.33,0,0,0,.44,7.53h0a5.34,5.34,0,0,0,7.53-.45l3.64-4.1a5.34,5.34,0,0,0-4-8.88Z" style="fill:#fff"></path></g><rect x="108.1" y="160.19" width="160.94" height="256.05" rx="5.01" style="fill:#407BFF"></rect><rect x="114.09" y="164.92" width="157.89" height="246.06" style="fill:#fff"></rect><rect x="124.22" y="160.19" width="160.94" height="256.05" rx="5.01" style="fill:#407BFF"></rect><rect x="124.22" y="160.19" width="160.94" height="256.05" rx="5.01" style="fill:#fff;opacity:0.2"></rect><polygon points="119.32 164.92 118.78 350.9 118.25 164.92 119.32 164.92" style="opacity:0.2"></polygon><polygon points="120.93 410.98 121.47 186.59 122.01 410.98 120.93 410.98" style="opacity:0.2"></polygon><polygon points="110.69 240.87 96.61 234.41 96.61 186.59 110.69 180.13 110.69 240.87" style="fill:#407BFF"></polygon><g style="opacity:0.6000000000000001"><path d="M159.83,251.5a.59.59,0,0,1-.28-.28.56.56,0,0,1,0-.4.49.49,0,0,1,.22-.27v-.06s0-.05,0-.07v-.08h0a.55.55,0,0,1,0-.31.43.43,0,0,1,.23-.28.41.41,0,0,1,.27,0l-.49-1-9.39,4.49,1.13,2.36,3.66-1.76,2.66,5.55.16-.09a.45.45,0,0,1,.48.06l.2.2a.9.9,0,0,1,.14.2.88.88,0,0,1,.11.42,1.36,1.36,0,0,1,0,.2,2.81,2.81,0,0,0,0,.29.49.49,0,0,1-.15.34.53.53,0,0,1-.1.06l2.59,5.42,2.06-1-6.06-12.65,2.69-1.29Z" style="fill:#fff"></path><path d="M173.32,246.74a.42.42,0,0,1-.18.17.42.42,0,0,1-.42,0s0,0,0,.07a.44.44,0,0,1-.54.31.59.59,0,0,1-.4-.57,5,5,0,0,0,0-.78,2.44,2.44,0,0,0,0-.27,5.94,5.94,0,0,0-5.59-.3c-3.43,1.64-4.39,6.13-2.27,10.57a10,10,0,0,0,4.44,4.76,26.38,26.38,0,0,1-.29-3.06,7.61,7.61,0,0,1-2.08-2.69c-1.46-3.07-.86-6.07,1.37-7.14s4.94.35,6.41,3.41.87,6.07-1.36,7.14a3.55,3.55,0,0,1-2.29.25,21.6,21.6,0,0,1-.62,2.52,5.72,5.72,0,0,0,4.08-.33c3.43-1.64,4.4-6.11,2.26-10.57A11.21,11.21,0,0,0,173.32,246.74Z" style="fill:#fff"></path><path d="M179,239.46l-4.56,2.18,7.19,15,2.06-1-2.08-4.33,1.74-.83a.62.62,0,0,1-.09-.32.52.52,0,0,1,.14-.34.56.56,0,0,1,.17-.09h.09s0,0,.05-.05l0,0h0a.75.75,0,0,1,.14-.17.56.56,0,0,1,.28-.13h.15l.15,0a.52.52,0,0,1,.19.11,1,1,0,0,1,.19.17c2.34-1.5,2.93-4.18,1.48-7.2C184.68,239.22,181.91,238.07,179,239.46Zm3.89,8.36L180.49,249l-2.85-6,2.4-1.15c1.8-.86,3.26-.21,4.16,1.67S184.7,247,182.9,247.82Z" style="fill:#fff"></path><path d="M193.62,237.54c-.54-1.13-.28-2.37,1.43-3.18a5.52,5.52,0,0,1,3.61-.29l-.39-2.47A6.26,6.26,0,0,0,194,232a4.58,4.58,0,0,0-2.89,3.9h.05a3,3,0,0,1,.75.43.61.61,0,0,1,.23.47,1,1,0,0,1-.29.71c-.08.07-.18.12-.25.19h0v0a.55.55,0,0,1-.11.3c.07.19.13.38.22.57,2.68,5.57,8.23.3,9.78,3.54.54,1.11.21,2.3-1.51,3.12a5.71,5.71,0,0,1-4.44.1v.13h.09l.18.1,0,0a.57.57,0,0,1,.11.11h0l.08.12,0,.08a.48.48,0,0,1,0,.22.59.59,0,0,1,0,.13.52.52,0,0,1-.06.13h0a.69.69,0,0,1-.11.13h0l-.12.08,0,0-.05,0,.15,1.17a6.64,6.64,0,0,0,5.23-.29,4.59,4.59,0,0,0,2.9-3.92l-.1,0a.52.52,0,0,1-.36-.1.64.64,0,0,1-.22-.35.52.52,0,0,1,.06-.37.41.41,0,0,1,.3-.21l.14,0a.94.94,0,0,0-.06-.15.59.59,0,0,1,0-.32.57.57,0,0,1-.15-.83c-.05-.12-.08-.24-.14-.36C200.72,235.52,195.15,240.74,193.62,237.54Z" style="fill:#fff"></path><path d="M211.93,239.27a2.76,2.76,0,0,1-.22,1.24,1.2,1.2,0,0,1-.49.53,1.34,1.34,0,0,1-.77.15.58.58,0,0,1-.46-.58.45.45,0,0,1,.5-.44h.15l.11-.05.06-.06a.35.35,0,0,0,.05-.08.08.08,0,0,0,0,0v0a.83.83,0,0,0,0-.15L208.37,241l-2-4.14,3.25-1.55s0-.07,0-.11a15,15,0,0,1-.44-2.48l-3.86,1.85-1.87-3.9,5.26-2.52a.48.48,0,0,1-.11-.15.62.62,0,0,1,0-.4c.1-.36.21-.71.31-1.07l-.52-1.08-3.86,1.84a2.56,2.56,0,0,1-1.23,1.3.49.49,0,0,1-.64-.27.36.36,0,0,1,0-.11l-2.31,1.11,7.19,15,8.3-4L214.61,238Z" style="fill:#fff"></path><path d="M222.77,234.11a.56.56,0,0,1,0,.38s0,0,0,.06a6.53,6.53,0,0,0,0,1,.53.53,0,0,1-.15.34.4.4,0,0,1-.35.1.54.54,0,0,1-.33-.19.69.69,0,0,1-.12-.32.7.7,0,0,1-.13-.17.61.61,0,0,1,0-.4l.08-.26c-2.2.77-4.68-.61-6.08-3.52-1.48-3.08-.86-6.06,1.43-7.16a3.9,3.9,0,0,1,3.8.34l.51-2.33a5.58,5.58,0,0,0-5.58-.41,5.87,5.87,0,0,0-.88.53.14.14,0,0,0,0,.06,1.1,1.1,0,0,1,0,.31,1.13,1.13,0,0,1-.05.32.46.46,0,0,1-.23.28.47.47,0,0,1-.37,0,.58.58,0,0,1-.25-.24c-1.94,2.12-2.23,5.69-.51,9.29,1.86,3.88,5.17,5.91,8.22,5.33,0,0,0,0,0-.08s.05-.13.07-.19l0,0a.58.58,0,0,1,.1-.12.53.53,0,0,1,.25-.12.54.54,0,0,1,.18,0h.05a.76.76,0,0,1-.08-.11.59.59,0,0,1,0-.39.48.48,0,0,1,.23-.29l.67-.31a.45.45,0,0,1,.36,0,.61.61,0,0,1,.29.28.53.53,0,0,1,0,.39.37.37,0,0,1-.07.14,5.67,5.67,0,0,0,1.42-1.34h0a.29.29,0,0,1-.18,0,.38.38,0,0,1-.16-.11.43.43,0,0,1-.13-.17l-.09-.19a.47.47,0,0,1-.05-.26v-.13a.44.44,0,0,1,.13-.21l.11-.07a.27.27,0,0,1,.18,0,.38.38,0,0,1,.18,0,.46.46,0,0,1,.16.11.52.52,0,0,1,.12.17l.09.19a.61.61,0,0,1,0,.11,6.16,6.16,0,0,0,.71-2.28l-2.15-1.08A4.08,4.08,0,0,1,222.77,234.11Z" style="fill:#fff"></path><path d="M234,225.49c1.12-1.51,1.17-3.59.08-5.86a7.26,7.26,0,0,0-1.9-2.51.37.37,0,0,1-.13.15.45.45,0,0,1-.2.58.48.48,0,0,1-.64-.28h-.06a.68.68,0,0,1-.47-.26.08.08,0,0,0,0,0,2.35,2.35,0,0,1-.23.32.48.48,0,0,1-.68-.09.54.54,0,0,1,0-.72l.09-.1a3.08,3.08,0,0,0,.35-.58,5.09,5.09,0,0,0-3.39.45l-4.55,2.18,2.9,6.05a.69.69,0,0,1,.13-.11l.1,0h0a.58.58,0,0,1,0-.18l0-.13a.38.38,0,0,1,.13-.21l.1-.07a.3.3,0,0,1,.18,0,.44.44,0,0,1,.19,0,.57.57,0,0,1,.16.11.52.52,0,0,1,.12.17c0,.07.05.14.07.2s0,.06,0,.09a2.44,2.44,0,0,1,0,.27,2,2,0,0,1,0,.24.09.09,0,0,1,0,.05.46.46,0,0,1-.13.21l0,0,.32.66a.51.51,0,0,1-.19.68.47.47,0,0,1-.17,0l3.33,7,2.06-1-2.1-4.37,2.5-1.2a4.36,4.36,0,0,0,.42-.23l4.36,3.32,2.21-1.06Zm-3.28-.56-2.41,1.15-2.86-6,2.4-1.15c1.8-.86,3.26-.22,4.16,1.67S232.54,224.07,230.74,224.93Z" style="fill:#fff"></path><path d="M240,220.74l5.34-2.56-.39-.82h-.11a.87.87,0,0,1-.38-.11,1.51,1.51,0,0,1-.26-.18l-.14-.14a.81.81,0,0,1-.16-.32,2.5,2.5,0,0,0-.07-.26h0s0-.07,0-.11l-.06-.12-4.83,2.31-1.87-3.9,3.41-1.63a.62.62,0,0,1-.32-.28.52.52,0,0,1,.2-.68,5.2,5.2,0,0,0,.46-.25.81.81,0,0,0,.14-.12l.1-.09a0,0,0,0,1,0,0v0a.47.47,0,0,1,.76,0,2.44,2.44,0,0,1,.39.63l.87-.41-1.12-2.34-8.08,3.87,1.21,2.52h0a.44.44,0,0,1,.54-.18.58.58,0,0,1,.32.67s0,.06,0,.09a1.55,1.55,0,0,1-.12.9l0,0,5.26,11,5.09-2.44v0c0-.1,0-.21.07-.31l0-.12v-.05c0-.17.05-.34.09-.51a1.83,1.83,0,0,1,.56-.91c.32-.28.8,0,.81.47a3.58,3.58,0,0,1-.06.74l1.71-.82-1.12-2.33-6.24,3Z" style="fill:#fff"></path><path d="M251.06,204.94a.46.46,0,0,1-.24.37,1,1,0,0,0-.17.1,1.15,1.15,0,0,0-.23.21,1.49,1.49,0,0,0-.18.3,1.55,1.55,0,0,0-.08.23.45.45,0,0,1-.6.28.58.58,0,0,1-.32-.62l-6.23,3,1.13,2.35,3.67-1.75,4.25,8.87a2.27,2.27,0,0,1,.25.06,2.22,2.22,0,0,1,.72.5,4.06,4.06,0,0,1,.86,1.66.46.46,0,0,1-.36.58.57.57,0,0,1-.13,0l.47,1,2-1-6.06-12.65,3.67-1.75-1.13-2.36Z" style="fill:#fff"></path><path d="M169.5,272.13a3.49,3.49,0,0,1-1.41,1h0s0,0,0,.06a2.73,2.73,0,0,1-1.36,1.75,2,2,0,0,1-1.62,0,1.51,1.51,0,0,1-.21.23,1.48,1.48,0,0,1-.34.21,1.29,1.29,0,0,1-.51.07.45.45,0,0,1-.33-.19.58.58,0,0,1-.12-.28l-8.37,4L140.5,248.24l37.16-17.8,0-.17,0-.1h0c0-.13,0-.26,0-.39a8.51,8.51,0,0,0,0-.88l0-.46h0v0s0-.07,0-.1,0-.08,0-.12l-8.42,4c0,.09-.08.18-.13.27a2.4,2.4,0,0,1-2.78,1.12L138,247.19l1.27,2.66a.48.48,0,0,1,.36-.52.55.55,0,0,1,.58.45,8,8,0,0,0,.45,1.17l.06-.06a.48.48,0,0,1,.68.09.56.56,0,0,1,.11.43.63.63,0,0,1,.29.52,12.16,12.16,0,0,0,.29,1.86,7.65,7.65,0,0,1,.16,2.07.7.7,0,0,1,0,.14l10.47,21.85a3.16,3.16,0,0,1,.68.49,3.25,3.25,0,0,1,1,1.83.44.44,0,0,1-.3.54l.4.85L218.19,251c.31-.48.63-1,.93-1.46a7.86,7.86,0,0,0,.71-1.56Z" style="fill:#fff"></path><path d="M270,222.91s0-.11,0-.13h0c0-.16-.05-.32-.08-.47-.08-.31-.17-.61-.22-.92a.52.52,0,0,1,.15-.47L258,196.1h0a1.28,1.28,0,0,1-1-.31,6.18,6.18,0,0,1-.74-.87.55.55,0,0,1,0-.73.46.46,0,0,1,.67.09l.24.3c0-.09,0-.18,0-.28l-1.61-3.37-32.13,15.39a.44.44,0,0,1-.24.49.44.44,0,0,1-.53-.12l-3.39,1.63h0a.4.4,0,0,1,0,.19,1.38,1.38,0,0,1-.18.39c-.05.07-.1.14-.14.21v0a.46.46,0,0,1-.23.28.41.41,0,0,1-.36,0,.39.39,0,0,1-.17-.11.48.48,0,0,1-.12-.16.49.49,0,0,1-.05-.2v0L178.6,227.76a.59.59,0,0,1,.06.14,8.19,8.19,0,0,1,.07,1.71.56.56,0,0,1,.23.2l75.77-36.3,14.72,30.74L221,247.48a6.79,6.79,0,0,1-1,2.72l1.31-.62v-.17a.94.94,0,0,0,0-.16c0-.09-.07-.18-.11-.27a.59.59,0,0,1,0-.39.5.5,0,0,1,.24-.29h0a.4.4,0,0,1,.24-.34.43.43,0,0,1,.55.16h.06a2.43,2.43,0,0,1,.52.17.59.59,0,0,1,.29.27.61.61,0,0,1,.05.18l47.82-22.9a.58.58,0,0,1-.1-.66,6.1,6.1,0,0,1,.63-1.08l-.4-.85s0,0,0,.07a.45.45,0,0,1-.5.45.57.57,0,0,1-.46-.58A2.44,2.44,0,0,0,270,222.91Z" style="fill:#fff"></path></g><polygon points="115.56 410.98 116.1 251.07 116.64 410.98 115.56 410.98" style="opacity:0.2"></polygon><path d="M110.77,284.34a6.82,6.82,0,0,1-1.67-.21,6.68,6.68,0,0,1-4.1-3.08l-6.88-11.62a6.71,6.71,0,0,1,2.36-9.17,6.7,6.7,0,0,1,9.17,2.35l6.87,11.62a6.7,6.7,0,0,1-5.75,10.11Zm-6.89-19.65a1.35,1.35,0,0,0-.67.19,1.31,1.31,0,0,0-.46,1.81l6.87,11.63a1.33,1.33,0,0,0,.81.61,1.36,1.36,0,0,0,1-.15h0a1.31,1.31,0,0,0,.61-.81,1.29,1.29,0,0,0-.15-1L105,265.35a1.32,1.32,0,0,0-.81-.61A1.06,1.06,0,0,0,103.88,264.69Z" style="fill:#263238"></path><path d="M136.44,302.51a6.7,6.7,0,0,1-3.41-.94l-11.61-6.9a6.69,6.69,0,0,1,6.84-11.51l11.61,6.9a6.7,6.7,0,0,1-3.43,12.45Zm-11.6-14.92a1.41,1.41,0,0,0-.33,0,1.31,1.31,0,0,0-.81.61,1.29,1.29,0,0,0-.15,1,1.31,1.31,0,0,0,.61.81l11.61,6.9a1.32,1.32,0,1,0,1.35-2.28l-11.61-6.9A1.3,1.3,0,0,0,124.84,287.59Z" style="fill:#263238"></path><path d="M166.86,311.71a6.65,6.65,0,0,1-1.65-.2l-13.09-3.31a6.7,6.7,0,0,1-4.85-8.13,6.69,6.69,0,0,1,8.13-4.85l13.09,3.31a6.7,6.7,0,0,1,1.79,12.24A6.7,6.7,0,0,1,166.86,311.71Zm-13.1-11.33a1.34,1.34,0,0,0-1.29,1,1.33,1.33,0,0,0,1,1.61l13.1,3.31a1.32,1.32,0,0,0,1.61-1h0a1.31,1.31,0,0,0-.15-1,1.33,1.33,0,0,0-.81-.61l-13.1-3.31A1.22,1.22,0,0,0,153.76,300.38Z" style="fill:#263238"></path><path d="M197.8,315.58l-.64,0-13.44-1.26a6.61,6.61,0,0,1-4.53-2.39,6.68,6.68,0,0,1,.88-9.43A6.62,6.62,0,0,1,185,301l13.45,1.26a6.69,6.69,0,0,1,6,7.28,6.71,6.71,0,0,1-6.65,6.08Zm-13.46-9.28a1.35,1.35,0,0,0-.85.31,1.32,1.32,0,0,0-.47.89,1.34,1.34,0,0,0,1.2,1.45l13.44,1.25a1.28,1.28,0,0,0,1-.3,1.33,1.33,0,0,0,.48-.9h0a1.34,1.34,0,0,0-1.2-1.44l-13.45-1.25Z" style="fill:#263238"></path><g style="opacity:0.4"><path d="M110.77,284.34a6.82,6.82,0,0,1-1.67-.21,6.68,6.68,0,0,1-4.1-3.08l-6.88-11.62a6.71,6.71,0,0,1,2.36-9.17,6.7,6.7,0,0,1,9.17,2.35l6.87,11.62a6.7,6.7,0,0,1-5.75,10.11Zm-6.89-19.65a1.35,1.35,0,0,0-.67.19,1.31,1.31,0,0,0-.46,1.81l6.87,11.63a1.33,1.33,0,0,0,.81.61,1.36,1.36,0,0,0,1-.15h0a1.31,1.31,0,0,0,.61-.81,1.29,1.29,0,0,0-.15-1L105,265.35a1.32,1.32,0,0,0-.81-.61A1.06,1.06,0,0,0,103.88,264.69Z" style="fill:#fff"></path><path d="M136.44,302.51a6.7,6.7,0,0,1-3.41-.94l-11.61-6.9a6.69,6.69,0,0,1,6.84-11.51l11.61,6.9a6.7,6.7,0,0,1-3.43,12.45Zm-11.6-14.92a1.41,1.41,0,0,0-.33,0,1.31,1.31,0,0,0-.81.61,1.29,1.29,0,0,0-.15,1,1.31,1.31,0,0,0,.61.81l11.61,6.9a1.32,1.32,0,1,0,1.35-2.28l-11.61-6.9A1.3,1.3,0,0,0,124.84,287.59Z" style="fill:#fff"></path><path d="M166.86,311.71a6.65,6.65,0,0,1-1.65-.2l-13.09-3.31a6.7,6.7,0,0,1-4.85-8.13,6.69,6.69,0,0,1,8.13-4.85l13.09,3.31a6.7,6.7,0,0,1,1.79,12.24A6.7,6.7,0,0,1,166.86,311.71Zm-13.1-11.33a1.34,1.34,0,0,0-1.29,1,1.33,1.33,0,0,0,1,1.61l13.1,3.31a1.32,1.32,0,0,0,1.61-1h0a1.31,1.31,0,0,0-.15-1,1.33,1.33,0,0,0-.81-.61l-13.1-3.31A1.22,1.22,0,0,0,153.76,300.38Z" style="fill:#fff"></path><path d="M197.8,315.58l-.64,0-13.44-1.26a6.61,6.61,0,0,1-4.53-2.39,6.68,6.68,0,0,1,.88-9.43A6.62,6.62,0,0,1,185,301l13.45,1.26a6.69,6.69,0,0,1,6,7.28,6.71,6.71,0,0,1-6.65,6.08Zm-13.46-9.28a1.35,1.35,0,0,0-.85.31,1.32,1.32,0,0,0-.47.89,1.34,1.34,0,0,0,1.2,1.45l13.44,1.25a1.28,1.28,0,0,0,1-.3,1.33,1.33,0,0,0,.48-.9h0a1.34,1.34,0,0,0-1.2-1.44l-13.45-1.25Z" style="fill:#fff"></path></g><path d="M119,296.72a10.64,10.64,0,0,1-7.1-2.69l-4.1-3.64a10.7,10.7,0,1,1,14.21-16l4.1,3.64a10.7,10.7,0,0,1,.9,15.11h0A10.66,10.66,0,0,1,119,296.72Zm-4.09-19.67h-.33a5.33,5.33,0,0,0-3.22,9.31l4.1,3.64a5.35,5.35,0,0,0,7.54-.44h0a5.36,5.36,0,0,0-.45-7.54l-4.11-3.64A5.3,5.3,0,0,0,114.87,277.05ZM125,291.35h0Z" style="fill:#263238"></path><path d="M147.74,310a10.68,10.68,0,0,1-3.54-.61L139,307.58a10.7,10.7,0,1,1,7.11-20.19l5.18,1.82a10.72,10.72,0,0,1,6.54,13.65h0A10.73,10.73,0,0,1,147.74,310Zm-5.17-17.87a5.34,5.34,0,0,0-5,3.57,5.32,5.32,0,0,0,3.26,6.8l5.17,1.83a5.35,5.35,0,0,0,6.8-3.26h0a5.34,5.34,0,0,0-3.26-6.81l-5.17-1.82A5.47,5.47,0,0,0,142.57,292.14Z" style="fill:#263238"></path><path d="M178.19,317.15a10.48,10.48,0,0,1-1.92-.18l-5.4-1a10.7,10.7,0,0,1-4.16-19.34,10.58,10.58,0,0,1,8-1.72l5.39,1a10.71,10.71,0,0,1,8.61,12.45h0A10.73,10.73,0,0,1,178.19,317.15Zm-5.41-17a5.25,5.25,0,0,0-3,.95,5.33,5.33,0,0,0,2.08,9.64l5.39,1a5.34,5.34,0,0,0,1.92-10.5l-5.4-1A5.31,5.31,0,0,0,172.78,300.12Zm13.3,7.76h0Z" style="fill:#263238"></path><g style="opacity:0.6000000000000001"><path d="M119,296.72a10.64,10.64,0,0,1-7.1-2.69l-4.1-3.64a10.7,10.7,0,1,1,14.21-16l4.1,3.64a10.7,10.7,0,0,1,.9,15.11h0A10.66,10.66,0,0,1,119,296.72Zm-4.09-19.67h-.33a5.33,5.33,0,0,0-3.22,9.31l4.1,3.64a5.35,5.35,0,0,0,7.54-.44h0a5.36,5.36,0,0,0-.45-7.54l-4.11-3.64A5.3,5.3,0,0,0,114.87,277.05ZM125,291.35h0Z" style="fill:#fff"></path><path d="M147.74,310a10.68,10.68,0,0,1-3.54-.61L139,307.58a10.7,10.7,0,1,1,7.11-20.19l5.18,1.82a10.72,10.72,0,0,1,6.54,13.65h0A10.73,10.73,0,0,1,147.74,310Zm-5.17-17.87a5.34,5.34,0,0,0-5,3.57,5.32,5.32,0,0,0,3.26,6.8l5.17,1.83a5.35,5.35,0,0,0,6.8-3.26h0a5.34,5.34,0,0,0-3.26-6.81l-5.17-1.82A5.47,5.47,0,0,0,142.57,292.14Z" style="fill:#fff"></path><path d="M178.19,317.15a10.48,10.48,0,0,1-1.92-.18l-5.4-1a10.7,10.7,0,0,1-4.16-19.34,10.58,10.58,0,0,1,8-1.72l5.39,1a10.71,10.71,0,0,1,8.61,12.45h0A10.73,10.73,0,0,1,178.19,317.15Zm-5.41-17a5.25,5.25,0,0,0-3,.95,5.33,5.33,0,0,0,2.08,9.64l5.39,1a5.34,5.34,0,0,0,1.92-10.5l-5.4-1A5.31,5.31,0,0,0,172.78,300.12Zm13.3,7.76h0Z" style="fill:#fff"></path></g><path d="M227,316.66a6.69,6.69,0,0,1-.48-13.37l13.47-1a6.69,6.69,0,1,1,1,13.35l-13.46,1Zm13.48-9h-.1l-13.47,1a1.34,1.34,0,0,0-.91.45,1.38,1.38,0,0,0-.32,1,1.35,1.35,0,0,0,.46.9,1.27,1.27,0,0,0,1,.32l13.47-1a1.34,1.34,0,0,0,.91-.45,1.37,1.37,0,0,0,.32-1h0A1.33,1.33,0,0,0,240.5,307.66Z" style="fill:#263238"></path><path d="M255.91,310a6.7,6.7,0,0,1-3.65-12.32l11.35-7.32a6.69,6.69,0,0,1,7.26,11.24l-11.34,7.33A6.69,6.69,0,0,1,255.91,310Zm11.33-15.35a1.29,1.29,0,0,0-.72.22l-11.34,7.32a1.32,1.32,0,1,0,1.43,2.23L268,297.1a1.32,1.32,0,0,0,.39-1.83,1.36,1.36,0,0,0-.83-.58A1.84,1.84,0,0,0,267.24,294.66Z" style="fill:#263238"></path><path d="M280.22,289.8a6.69,6.69,0,0,1-5.08-11.05l8.79-10.25a6.71,6.71,0,0,1,9.44-.73h0a6.7,6.7,0,0,1,.72,9.44l-8.79,10.26A6.68,6.68,0,0,1,280.22,289.8ZM289,271.53a1.33,1.33,0,0,0-1,.46l-8.8,10.26a1.33,1.33,0,0,0,2,1.72L290,273.72a1.33,1.33,0,0,0-1-2.19Z" style="fill:#263238"></path><g style="opacity:0.4"><path d="M227,316.66a6.69,6.69,0,0,1-.48-13.37l13.47-1a6.69,6.69,0,1,1,1,13.35l-13.46,1Zm13.48-9h-.1l-13.47,1a1.34,1.34,0,0,0-.91.45,1.38,1.38,0,0,0-.32,1,1.35,1.35,0,0,0,.46.9,1.27,1.27,0,0,0,1,.32l13.47-1a1.34,1.34,0,0,0,.91-.45,1.37,1.37,0,0,0,.32-1h0A1.33,1.33,0,0,0,240.5,307.66Z" style="fill:#fff"></path><path d="M255.91,310a6.7,6.7,0,0,1-3.65-12.32l11.35-7.32a6.69,6.69,0,0,1,7.26,11.24l-11.34,7.33A6.69,6.69,0,0,1,255.91,310Zm11.33-15.35a1.29,1.29,0,0,0-.72.22l-11.34,7.32a1.32,1.32,0,1,0,1.43,2.23L268,297.1a1.32,1.32,0,0,0,.39-1.83,1.36,1.36,0,0,0-.83-.58A1.84,1.84,0,0,0,267.24,294.66Z" style="fill:#fff"></path><path d="M280.22,289.8a6.69,6.69,0,0,1-5.08-11.05l8.79-10.25a6.71,6.71,0,0,1,9.44-.73h0a6.7,6.7,0,0,1,.72,9.44l-8.79,10.26A6.68,6.68,0,0,1,280.22,289.8ZM289,271.53a1.33,1.33,0,0,0-1,.46l-8.8,10.26a1.33,1.33,0,0,0,2,1.72L290,273.72a1.33,1.33,0,0,0-1-2.19Z" style="fill:#fff"></path></g><path d="M246.08,319.09a10.7,10.7,0,0,1-4-20.63l5.08-2.06a10.72,10.72,0,0,1,13.94,5.92h0a10.72,10.72,0,0,1-5.92,13.93l-5.08,2.06A10.81,10.81,0,0,1,246.08,319.09Zm5.09-18.1a5.39,5.39,0,0,0-2,.39l-5.08,2.06a5.33,5.33,0,0,0,4,9.89l5.09-2.06a5.33,5.33,0,0,0,3-6.94h0a5.36,5.36,0,0,0-5-3.34Z" style="fill:#263238"></path><path d="M271.46,301.94A10.7,10.7,0,0,1,264,283.57l3.94-3.83a10.71,10.71,0,0,1,15.13.22,10.71,10.71,0,0,1-.21,15.14l-3.94,3.82A10.65,10.65,0,0,1,271.46,301.94Zm3.94-19.85a5.32,5.32,0,0,0-3.72,1.5l-3.94,3.83a5.34,5.34,0,0,0,7.44,7.65l3.93-3.82a5.33,5.33,0,0,0-3.71-9.16Z" style="fill:#263238"></path><g style="opacity:0.6000000000000001"><path d="M246.08,319.09a10.7,10.7,0,0,1-4-20.63l5.08-2.06a10.72,10.72,0,0,1,13.94,5.92h0a10.72,10.72,0,0,1-5.92,13.93l-5.08,2.06A10.81,10.81,0,0,1,246.08,319.09Zm5.09-18.1a5.39,5.39,0,0,0-2,.39l-5.08,2.06a5.33,5.33,0,0,0,4,9.89l5.09-2.06a5.33,5.33,0,0,0,3-6.94h0a5.36,5.36,0,0,0-5-3.34Z" style="fill:#fff"></path><path d="M271.46,301.94A10.7,10.7,0,0,1,264,283.57l3.94-3.83a10.71,10.71,0,0,1,15.13.22,10.71,10.71,0,0,1-.21,15.14l-3.94,3.82A10.65,10.65,0,0,1,271.46,301.94Zm3.94-19.85a5.32,5.32,0,0,0-3.72,1.5l-3.94,3.83a5.34,5.34,0,0,0,7.44,7.65l3.93-3.82a5.33,5.33,0,0,0-3.71-9.16Z" style="fill:#fff"></path></g><path d="M233.63,330.46h-6.71V309.89a14.27,14.27,0,1,0-28.53,0v20.57h-6.7V309.89a21,21,0,1,1,41.94,0Z" style="fill:#263238"></path><g style="opacity:0.30000000000000004"><path d="M233.63,330.46h-6.71V309.89a14.27,14.27,0,1,0-28.53,0v20.57h-6.7V309.89a21,21,0,1,1,41.94,0Z" style="fill:#fff"></path></g><path d="M240.67,325.23v33.66a3.9,3.9,0,0,1-3.9,3.91H187.26a3.9,3.9,0,0,1-3.89-3.91V325.23a3.9,3.9,0,0,1,3.89-3.91h49.51A3.9,3.9,0,0,1,240.67,325.23Z" style="fill:#263238"></path><path d="M240.67,325.23v33.66a3.9,3.9,0,0,1-3.9,3.91H200.68a3.91,3.91,0,0,1-3.9-3.91V325.23a3.91,3.91,0,0,1,3.9-3.91h36.09A3.9,3.9,0,0,1,240.67,325.23Z" style="fill:#fff;opacity:0.2"></path><path d="M225,337.83c0-4.15-2.81-7.51-6.26-7.51s-6.27,3.36-6.27,7.51a7.56,7.56,0,0,0,4.09,7l-.33,8.95h5l-.75-8.79A7.42,7.42,0,0,0,225,337.83Z" style="fill:#263238"></path><path d="M287.87,279.76l-.39,0a10.7,10.7,0,0,1-9-12.16l.81-5.42a10.7,10.7,0,0,1,12.16-9,2.68,2.68,0,0,1-.79,5.31,5.33,5.33,0,0,0-4,1,5.26,5.26,0,0,0-2.1,3.5l-.81,5.42a5.33,5.33,0,0,0,4.49,6.06,2.68,2.68,0,0,1-.39,5.34Z" style="fill:#263238"></path><g style="opacity:0.6000000000000001"><path d="M287.87,279.76l-.39,0a10.7,10.7,0,0,1-9-12.16l.81-5.42a10.7,10.7,0,0,1,12.16-9,2.68,2.68,0,0,1-.79,5.31,5.33,5.33,0,0,0-4,1,5.26,5.26,0,0,0-2.1,3.5l-.81,5.42a5.33,5.33,0,0,0,4.49,6.06,2.68,2.68,0,0,1-.39,5.34Z" style="fill:#fff"></path></g><path d="M238.65,314.07a2.68,2.68,0,0,1-2.49-1.68,10.69,10.69,0,0,1,5.92-13.93l5.08-2.06a10.72,10.72,0,0,1,13.94,5.92,2.69,2.69,0,0,1-5,2,5.34,5.34,0,0,0-7-2.95l-5.08,2.06a5.34,5.34,0,0,0-3,6.94,2.7,2.7,0,0,1-1.48,3.5A2.74,2.74,0,0,1,238.65,314.07Z" style="fill:#263238"></path><path d="M265.71,299.52a2.67,2.67,0,0,1-1.92-.82,10.7,10.7,0,0,1,.21-15.13l3.94-3.83a10.71,10.71,0,0,1,15.13.22,2.68,2.68,0,1,1-3.85,3.74,5.34,5.34,0,0,0-7.54-.11l-3.94,3.83a5.34,5.34,0,0,0-.1,7.54,2.69,2.69,0,0,1-1.93,4.56Z" style="fill:#263238"></path><g style="opacity:0.6000000000000001"><path d="M238.65,314.07a2.68,2.68,0,0,1-2.49-1.68,10.69,10.69,0,0,1,5.92-13.93l5.08-2.06a10.72,10.72,0,0,1,13.94,5.92,2.69,2.69,0,0,1-5,2,5.34,5.34,0,0,0-7-2.95l-5.08,2.06a5.34,5.34,0,0,0-3,6.94,2.7,2.7,0,0,1-1.48,3.5A2.74,2.74,0,0,1,238.65,314.07Z" style="fill:#fff"></path><path d="M265.71,299.52a2.67,2.67,0,0,1-1.92-.82,10.7,10.7,0,0,1,.21-15.13l3.94-3.83a10.71,10.71,0,0,1,15.13.22,2.68,2.68,0,1,1-3.85,3.74,5.34,5.34,0,0,0-7.54-.11l-3.94,3.83a5.34,5.34,0,0,0-.1,7.54,2.69,2.69,0,0,1-1.93,4.56Z" style="fill:#fff"></path></g><path d="M255.91,310a6.71,6.71,0,0,1-5.64-3.06,2.68,2.68,0,1,1,4.51-2.91,1.34,1.34,0,0,0,1.83.39L268,297.1a1.32,1.32,0,0,0,.39-1.83,2.68,2.68,0,1,1,4.51-2.91,6.69,6.69,0,0,1-2,9.25l-11.34,7.33A6.69,6.69,0,0,1,255.91,310Z" style="fill:#263238"></path><path d="M280.22,289.8a6.67,6.67,0,0,1-4.36-1.61,2.69,2.69,0,0,1,3.5-4.08,1.32,1.32,0,0,0,1.87-.14L290,273.72a1.33,1.33,0,0,0-.15-1.87,2.69,2.69,0,0,1,3.5-4.08,6.7,6.7,0,0,1,.72,9.44l-8.79,10.26A6.68,6.68,0,0,1,280.22,289.8Z" style="fill:#263238"></path><path d="M227,316.66a6.68,6.68,0,0,1-6.67-6.2,2.68,2.68,0,1,1,5.35-.39,1.35,1.35,0,0,0,.46.9,1.27,1.27,0,0,0,1,.32l13.47-1a1.34,1.34,0,0,0,.91-.45,1.37,1.37,0,0,0,.32-1,2.68,2.68,0,1,1,5.35-.4,6.69,6.69,0,0,1-6.19,7.17l-13.46,1Z" style="fill:#263238"></path><g style="opacity:0.5"><path d="M255.91,310a6.71,6.71,0,0,1-5.64-3.06,2.68,2.68,0,1,1,4.51-2.91,1.34,1.34,0,0,0,1.83.39L268,297.1a1.32,1.32,0,0,0,.39-1.83,2.68,2.68,0,1,1,4.51-2.91,6.69,6.69,0,0,1-2,9.25l-11.34,7.33A6.69,6.69,0,0,1,255.91,310Z" style="fill:#fff"></path><path d="M280.22,289.8a6.67,6.67,0,0,1-4.36-1.61,2.69,2.69,0,0,1,3.5-4.08,1.32,1.32,0,0,0,1.87-.14L290,273.72a1.33,1.33,0,0,0-.15-1.87,2.69,2.69,0,0,1,3.5-4.08,6.7,6.7,0,0,1,.72,9.44l-8.79,10.26A6.68,6.68,0,0,1,280.22,289.8Z" style="fill:#fff"></path><path d="M227,316.66a6.68,6.68,0,0,1-6.67-6.2,2.68,2.68,0,1,1,5.35-.39,1.35,1.35,0,0,0,.46.9,1.27,1.27,0,0,0,1,.32l13.47-1a1.34,1.34,0,0,0,.91-.45,1.37,1.37,0,0,0,.32-1,2.68,2.68,0,1,1,5.35-.4,6.69,6.69,0,0,1-6.19,7.17l-13.46,1Z" style="fill:#fff"></path></g><path d="M293.15,262.15a2.68,2.68,0,0,1-2.32-4,5.35,5.35,0,0,0-1.95-7.29,2.68,2.68,0,1,1,2.68-4.65,10.7,10.7,0,0,1,3.92,14.62A2.7,2.7,0,0,1,293.15,262.15Z" style="fill:#263238"></path><g style="opacity:0.5"><path d="M293.15,262.15a2.68,2.68,0,0,1-2.32-4,5.35,5.35,0,0,0-1.95-7.29,2.68,2.68,0,1,1,2.68-4.65,10.7,10.7,0,0,1,3.92,14.62A2.7,2.7,0,0,1,293.15,262.15Z" style="fill:#fff"></path></g><path d="M119,296.72a10.64,10.64,0,0,1-7.1-2.69l-4.1-3.64a10.7,10.7,0,0,1-.9-15.11,2.68,2.68,0,1,1,4,3.56,5.34,5.34,0,0,0,.45,7.53l4.1,3.64a5.34,5.34,0,0,0,7.54-.45,2.68,2.68,0,1,1,4,3.57A10.66,10.66,0,0,1,119,296.72Z" style="fill:#263238"></path><path d="M147.74,310a10.68,10.68,0,0,1-3.54-.61L139,307.58a10.7,10.7,0,0,1-6.54-13.65,2.69,2.69,0,0,1,5.07,1.78,5.32,5.32,0,0,0,3.26,6.8l5.17,1.83a5.35,5.35,0,0,0,6.8-3.26,2.69,2.69,0,0,1,5.07,1.78A10.73,10.73,0,0,1,147.74,310Z" style="fill:#263238"></path><path d="M178.19,317.15a10.48,10.48,0,0,1-1.92-.18l-5.4-1a10.73,10.73,0,0,1-8.61-12.46,2.68,2.68,0,0,1,5.28,1,5.36,5.36,0,0,0,4.3,6.21l5.39,1a5.34,5.34,0,0,0,6.21-4.29,2.68,2.68,0,0,1,5.28,1A10.73,10.73,0,0,1,178.19,317.15Z" style="fill:#263238"></path><path d="M119,296.72a10.64,10.64,0,0,1-7.1-2.69l-4.1-3.64a10.7,10.7,0,0,1-.9-15.11,2.68,2.68,0,1,1,4,3.56,5.34,5.34,0,0,0,.45,7.53l4.1,3.64a5.34,5.34,0,0,0,7.54-.45,2.68,2.68,0,1,1,4,3.57A10.66,10.66,0,0,1,119,296.72Z" style="fill:#263238"></path><path d="M147.74,310a10.68,10.68,0,0,1-3.54-.61L139,307.58a10.7,10.7,0,0,1-6.54-13.65,2.69,2.69,0,0,1,5.07,1.78,5.32,5.32,0,0,0,3.26,6.8l5.17,1.83a5.35,5.35,0,0,0,6.8-3.26,2.69,2.69,0,0,1,5.07,1.78A10.73,10.73,0,0,1,147.74,310Z" style="fill:#263238"></path><path d="M178.19,317.15a10.48,10.48,0,0,1-1.92-.18l-5.4-1a10.73,10.73,0,0,1-8.61-12.46,2.68,2.68,0,0,1,5.28,1,5.36,5.36,0,0,0,4.3,6.21l5.39,1a5.34,5.34,0,0,0,6.21-4.29,2.68,2.68,0,0,1,5.28,1A10.73,10.73,0,0,1,178.19,317.15Z" style="fill:#263238"></path><g style="opacity:0.6000000000000001"><path d="M119,296.72a10.64,10.64,0,0,1-7.1-2.69l-4.1-3.64a10.7,10.7,0,0,1-.9-15.11,2.68,2.68,0,1,1,4,3.56,5.34,5.34,0,0,0,.45,7.53l4.1,3.64a5.34,5.34,0,0,0,7.54-.45,2.68,2.68,0,1,1,4,3.57A10.66,10.66,0,0,1,119,296.72Z" style="fill:#fff"></path><path d="M147.74,310a10.68,10.68,0,0,1-3.54-.61L139,307.58a10.7,10.7,0,0,1-6.54-13.65,2.69,2.69,0,0,1,5.07,1.78,5.32,5.32,0,0,0,3.26,6.8l5.17,1.83a5.35,5.35,0,0,0,6.8-3.26,2.69,2.69,0,0,1,5.07,1.78A10.73,10.73,0,0,1,147.74,310Z" style="fill:#fff"></path><path d="M178.19,317.15a10.48,10.48,0,0,1-1.92-.18l-5.4-1a10.73,10.73,0,0,1-8.61-12.46,2.68,2.68,0,0,1,5.28,1,5.36,5.36,0,0,0,4.3,6.21l5.39,1a5.34,5.34,0,0,0,6.21-4.29,2.68,2.68,0,0,1,5.28,1A10.73,10.73,0,0,1,178.19,317.15Z" style="fill:#fff"></path></g><path d="M112.81,283.78a2.69,2.69,0,0,1-1.37-5,1.31,1.31,0,0,0,.61-.81,1.29,1.29,0,0,0-.15-1L105,265.35a1.32,1.32,0,0,0-.81-.61,1.3,1.3,0,0,0-1,.14,2.68,2.68,0,1,1-2.73-4.62,6.7,6.7,0,0,1,9.17,2.35l6.87,11.62a6.68,6.68,0,0,1-2.35,9.17A2.62,2.62,0,0,1,112.81,283.78Z" style="fill:#263238"></path><path d="M139.89,300.55a2.75,2.75,0,0,1-1.37-.38,2.69,2.69,0,0,1-.93-3.68,1.34,1.34,0,0,0-.47-1.82l-11.61-6.9a1.32,1.32,0,0,0-1-.14,1.31,1.31,0,0,0-.81.61,2.69,2.69,0,0,1-4.62-2.74,6.7,6.7,0,0,1,9.18-2.34l11.61,6.9a6.69,6.69,0,0,1,2.33,9.17A2.67,2.67,0,0,1,139.89,300.55Z" style="fill:#263238"></path><path d="M170.74,308.69a2.5,2.5,0,0,1-.66-.09,2.67,2.67,0,0,1-1.94-3.26,1.36,1.36,0,0,0-.15-1,1.33,1.33,0,0,0-.81-.61l-13.1-3.31a1.32,1.32,0,0,0-1,.15,1.3,1.3,0,0,0-.61.81l-5.2-1.31a6.69,6.69,0,0,1,8.13-4.85l13.09,3.31a6.69,6.69,0,0,1,4.85,8.13A2.69,2.69,0,0,1,170.74,308.69Z" style="fill:#263238"></path><path d="M201.78,311.94h-.25a2.68,2.68,0,0,1-2.42-2.93,1.34,1.34,0,0,0-1.2-1.44l-13.45-1.25a1.36,1.36,0,0,0-1,.3,1.32,1.32,0,0,0-.47.89,2.69,2.69,0,1,1-5.35-.5,6.7,6.7,0,0,1,7.29-6l13.45,1.26a6.69,6.69,0,0,1,6,7.28A2.69,2.69,0,0,1,201.78,311.94Z" style="fill:#263238"></path><g style="opacity:0.5"><path d="M112.81,283.78a2.69,2.69,0,0,1-1.37-5,1.31,1.31,0,0,0,.61-.81,1.29,1.29,0,0,0-.15-1L105,265.35a1.32,1.32,0,0,0-.81-.61,1.3,1.3,0,0,0-1,.14,2.68,2.68,0,1,1-2.73-4.62,6.7,6.7,0,0,1,9.17,2.35l6.87,11.62a6.68,6.68,0,0,1-2.35,9.17A2.62,2.62,0,0,1,112.81,283.78Z" style="fill:#fff"></path><path d="M139.89,300.55a2.75,2.75,0,0,1-1.37-.38,2.69,2.69,0,0,1-.93-3.68,1.34,1.34,0,0,0-.47-1.82l-11.61-6.9a1.32,1.32,0,0,0-1-.14,1.31,1.31,0,0,0-.81.61,2.69,2.69,0,0,1-4.62-2.74,6.7,6.7,0,0,1,9.18-2.34l11.61,6.9a6.69,6.69,0,0,1,2.33,9.17A2.67,2.67,0,0,1,139.89,300.55Z" style="fill:#fff"></path><path d="M170.74,308.69a2.5,2.5,0,0,1-.66-.09,2.67,2.67,0,0,1-1.94-3.26,1.36,1.36,0,0,0-.15-1,1.33,1.33,0,0,0-.81-.61l-13.1-3.31a1.32,1.32,0,0,0-1,.15,1.3,1.3,0,0,0-.61.81l-5.2-1.31a6.69,6.69,0,0,1,8.13-4.85l13.09,3.31a6.69,6.69,0,0,1,4.85,8.13A2.69,2.69,0,0,1,170.74,308.69Z" style="fill:#fff"></path><path d="M201.78,311.94h-.25a2.68,2.68,0,0,1-2.42-2.93,1.34,1.34,0,0,0-1.2-1.44l-13.45-1.25a1.36,1.36,0,0,0-1,.3,1.32,1.32,0,0,0-.47.89,2.69,2.69,0,1,1-5.35-.5,6.7,6.7,0,0,1,7.29-6l13.45,1.26a6.69,6.69,0,0,1,6,7.28A2.69,2.69,0,0,1,201.78,311.94Z" style="fill:#fff"></path></g><path d="M103.22,269.54a2.69,2.69,0,0,1-1.78-.67,10.71,10.71,0,0,1-.9-15.12,2.69,2.69,0,0,1,4,3.57,5.33,5.33,0,0,0,.44,7.53,2.68,2.68,0,0,1-1.78,4.69Z" style="fill:#263238"></path><g style="opacity:0.6000000000000001"><path d="M103.22,269.54a2.69,2.69,0,0,1-1.78-.67,10.71,10.71,0,0,1-.9-15.12,2.69,2.69,0,0,1,4,3.57,5.33,5.33,0,0,0,.44,7.53,2.68,2.68,0,0,1-1.78,4.69Z" style="fill:#fff"></path></g></g><g id="freepik--speech-bubble--inject-7"><polygon points="318.86 137.51 329.54 150.96 324.2 150.96 335.61 161.02 329.28 152.98 335.08 152.98 329.54 137.51 318.86 137.51" style="fill:#407BFF"></polygon><polygon points="318.86 137.51 329.54 150.96 324.2 150.96 335.61 161.02 329.28 152.98 335.08 152.98 329.54 137.51 318.86 137.51" style="fill:#fff;opacity:0.7000000000000001"></polygon><path d="M298.94,115.71h38.34a6.14,6.14,0,0,1,6.14,6.14v18.69a6.13,6.13,0,0,1-6.13,6.13H298.94a6.14,6.14,0,0,1-6.14-6.14V121.84A6.14,6.14,0,0,1,298.94,115.71Z" style="fill:#407BFF"></path><path d="M298.94,115.71h38.34a6.14,6.14,0,0,1,6.14,6.14v18.69a6.13,6.13,0,0,1-6.13,6.13H298.94a6.14,6.14,0,0,1-6.14-6.14V121.84A6.14,6.14,0,0,1,298.94,115.71Z" style="fill:#fff;opacity:0.7000000000000001"></path><path d="M304.87,133.81l.54-1.21a4.65,4.65,0,0,0,2.77.92c1.31,0,1.86-.47,1.86-1.09,0-1.81-5-.62-5-3.74,0-1.36,1.08-2.51,3.38-2.51a5.28,5.28,0,0,1,2.79.74l-.49,1.22a4.58,4.58,0,0,0-2.31-.66c-1.3,0-1.82.5-1.82,1.14,0,1.78,5,.62,5,3.7,0,1.34-1.09,2.5-3.39,2.5A5.41,5.41,0,0,1,304.87,133.81Z" style="fill:#407BFF"></path><path d="M319.29,131v3.67h-1.5v-3.47c0-1.14-.56-1.69-1.52-1.69a1.7,1.7,0,0,0-1.79,1.93v3.24H313v-8.9h1.5V129a2.88,2.88,0,0,1,2.13-.81A2.5,2.5,0,0,1,319.29,131Z" style="fill:#407BFF"></path><path d="M327.51,131v3.67H326v-3.48c0-1.13-.56-1.69-1.52-1.69a1.71,1.71,0,0,0-1.79,1.94v3.23h-1.5v-8.9h1.5V129a2.84,2.84,0,0,1,2.13-.81A2.5,2.5,0,0,1,327.51,131Z" style="fill:#407BFF"></path><path d="M329.15,133.84a.92.92,0,0,1,1-.92.9.9,0,0,1,.94.92.92.92,0,0,1-.94.94A.93.93,0,0,1,329.15,133.84Zm.08-7.54H331l-.3,5.61h-1.18Z" style="fill:#407BFF"></path></g><g id="freepik--Character--inject-7"><path d="M368.44,152.79c5.54,2,9.53,4,11.5,13s-2.1,32.15,0,39.19l-26.86-.49a32.53,32.53,0,0,1-2.86-20.72c2.28-11.73,0-.67,0-.67s-2.29,8.32-.59,15.16c0,0-4.51-4.74-2.36-14.49s-.13-22,5.81-26.51S368.44,152.79,368.44,152.79Z" style="fill:#263238"></path><path d="M350,205.06a90.2,90.2,0,0,1-12.42,6.64c-4,1.7-8.41,3.39-13,3.49a5.21,5.21,0,0,1-5.48-5.19c.17-2.95,2-4.56,3.74-6.36a84.48,84.48,0,0,1,8.08-6.75c3.64-2.77,7.37-5.31,11.25-7.73a2.55,2.55,0,0,1,3.15,4c-4.76,4.94-12.75,12.34-16.92,17.61a5.86,5.86,0,1,1-.34.52,4.11,4.11,0,0,0-1.44-4.53,3.57,3.57,0,0,0-2.28-.81c-.1,0,0,0,.06,0,5.1-1.07,9.89-3.92,14.55-6.39,1.94-1,3.88-2.2,5.72-3.25,5.85-3.14,10.8,5.07,5.3,8.79Z" style="fill:#ebc0bb"></path><path d="M345.66,195.69l-2.09,10-1.16,5.51s-1.86.93-4.61,2a38.47,38.47,0,0,1-12.11,2.66l1.45-3.48s5.26-5.48,12.74-13.6C339.88,198.69,344.67,196.07,345.66,195.69Z" style="fill:#407BFF"></path><polygon points="331.56 207.63 328.69 216.47 324.69 215.77 327.14 212.29 331.56 207.63" style="fill:#407BFF"></polygon><polygon points="331.56 207.63 328.69 216.47 324.69 215.77 327.14 212.29 331.56 207.63" style="fill:#fff;isolation:isolate;opacity:0.6000000000000001"></polygon><path d="M343.57,205.65l-1.16,5.51s-1.86.93-4.61,2c.58-5.12,5.48-8.64,5.48-8.64A4.64,4.64,0,0,1,343.57,205.65Z" style="opacity:0.2"></path><polygon points="392.94 317.3 405.18 314.34 404.41 311.17 403.19 311.46 401.99 306.52 400.22 306.95 399.13 302.47 402.13 301.75 401.44 298.86 389.19 301.82 392.94 317.3" style="fill:#263238"></polygon><g style="opacity:0.4"><polygon points="392.94 317.3 405.18 314.34 404.41 311.17 403.19 311.46 401.99 306.52 400.22 306.95 399.13 302.47 402.13 301.75 401.44 298.86 389.19 301.82 392.94 317.3" style="fill:#fff"></polygon></g><rect x="381.5" y="269.58" width="5.82" height="44.71" transform="translate(-57.88 98.61) rotate(-13.6)" style="fill:#263238"></rect><g style="opacity:0.4"><rect x="381.5" y="269.58" width="5.82" height="44.71" transform="translate(-57.88 98.61) rotate(-13.6)" style="fill:#fff"></rect></g><path d="M391,302.6l3.19,13.18a3.89,3.89,0,0,1-2.86,4.69h0a3.87,3.87,0,0,1-4.69-2.86l-3.19-13.18a3.87,3.87,0,0,1,2.86-4.69h0A3.88,3.88,0,0,1,391,302.6Z" style="fill:#263238"></path><path d="M374.93,273.63c-7.52,0-14.05-4.21-15.62-10.66a13.47,13.47,0,0,1,2.76-11.53,20.29,20.29,0,0,1,23.69-5.73,13.44,13.44,0,0,1,7.73,9c1.89,7.84-4.23,16.07-13.65,18.35A20.91,20.91,0,0,1,374.93,273.63Zm3-23.78a15.46,15.46,0,0,0-3.6.43h0a13.74,13.74,0,0,0-7.66,4.73,7.76,7.76,0,0,0-1.7,6.59c1.14,4.71,7.2,7.3,13.5,5.78s10.5-6.6,9.36-11.32a7.75,7.75,0,0,0-4.52-5.08A12.87,12.87,0,0,0,377.93,249.85Z" style="fill:#263238"></path><g style="opacity:0.5"><path d="M391,302.6l3.19,13.18a3.89,3.89,0,0,1-2.86,4.69h0a3.87,3.87,0,0,1-4.69-2.86l-3.19-13.18a3.87,3.87,0,0,1,2.86-4.69h0A3.88,3.88,0,0,1,391,302.6Z" style="fill:#fff"></path></g><g style="opacity:0.5"><path d="M374.93,273.63c-7.52,0-14.05-4.21-15.62-10.66a13.47,13.47,0,0,1,2.76-11.53,20.29,20.29,0,0,1,23.69-5.73,13.44,13.44,0,0,1,7.73,9c1.89,7.84-4.23,16.07-13.65,18.35A20.91,20.91,0,0,1,374.93,273.63Zm3-23.78a15.46,15.46,0,0,0-3.6.43h0a13.74,13.74,0,0,0-7.66,4.73,7.76,7.76,0,0,0-1.7,6.59c1.14,4.71,7.2,7.3,13.5,5.78s10.5-6.6,9.36-11.32a7.75,7.75,0,0,0-4.52-5.08A12.87,12.87,0,0,0,377.93,249.85Z" style="fill:#fff"></path></g><path d="M374.87,249.44l-.2-2.53a2.93,2.93,0,0,1,1-2.49l3.42-2.86a5.5,5.5,0,0,1,4.92-1.1l1.07.28c.61,4.16-1.8,9.12-1.8,9.12l-.53,1.49a2.46,2.46,0,0,1-3.12,1.57l-3-1A2.82,2.82,0,0,1,374.87,249.44Z" style="fill:#eec1bb"></path><path d="M370.29,249s-.47,8.12-4.44,22.34a224.7,224.7,0,0,1-9,25.87c-2,4.76-4.25,9.81-6.85,15.12-1.17,2.42-2.43,4.88-3.74,7.41-1.53,43.07-25.69,86.86-25.69,86.86-1.34.69-6-.07-6-1.42,3.58-5.69,10.62-60.88,15.16-87.06.28-3.56.69-7.37,1.2-11.31,1.33-10.56,3.29-22.06,5.2-32.17,3-15.92,5.86-28.4,5.86-28.4l8,.77Z" style="fill:#eec1bb"></path><path d="M379.79,308.63h0q-1,6.93-2.48,14.86c8.63,28.81-9.12,85-9.12,85-3,.59-5.67.21-7-.8,3.35-16.94.95-61-1.65-87.31-.24-2.38-.53-5-.85-7.82-.53-4.74-1.17-10-1.85-15.38-1.15-9-2.44-18.58-3.6-27-1.42-10.21-2.66-18.84-3.29-23.18-.27-1.91-.43-3-.43-3l24.94,2.69s6.33,7.11,7.29,29.31A181.41,181.41,0,0,1,379.79,308.63Z" style="fill:#eec1bb"></path><path d="M379.79,308.63h0a77.34,77.34,0,0,1-21.12,4c-.53-4.74-1.17-10-1.85-15.38-2,4.76-4.25,9.81-6.85,15.12a51.73,51.73,0,0,1-19.06-5.52c1.33-10.56,3.29-22.06,5.2-32.17a31.11,31.11,0,0,1,8.47-3.41,37.6,37.6,0,0,1,8.64-1,65.8,65.8,0,0,1,12.64,1.15A79.49,79.49,0,0,1,381.72,276,181.41,181.41,0,0,1,379.79,308.63Z" style="opacity:0.2"></path><path d="M379.94,196.61s-1.12,4.12-2.32,11c-.3,1.71-.61,3.59-.9,5.62-.22,1.46-.42,3-.61,4.61-.23,1.83-.44,3.76-.62,5.76a195.61,195.61,0,0,0-.84,23H341.82s-5.18-38.4,3.38-50.78C345.2,195.89,362,188,379.94,196.61Z" style="fill:#407BFF"></path><path d="M377.62,207.65c-.3,1.71-.61,3.59-.9,5.62-.22,1.46-.42,3-.61,4.61a26.46,26.46,0,0,1,.09-15Z" style="opacity:0.2"></path><path d="M363,190.31c10.29,0,11.59,8.47,11.59,8.47l-4.81-2.07-14.15,9.46-3.48-9.55-4.36.81S354,190.32,363,190.31Z" style="fill:#407BFF"></path><path d="M363,190.31c10.29,0,11.59,8.47,11.59,8.47l-4.81-2.07-14.15,9.46-3.48-9.55-4.36.81S354,190.32,363,190.31Z" style="fill:#fff;isolation:isolate;opacity:0.6000000000000001"></path><path d="M356.05,205.6l13.27-11.54c-3.22-3.31-1.57-12.4-.23-17.36L359,184.78c.68,3.85.52,8-5.11,9.28C353.91,194.06,356.06,205.57,356.05,205.6Z" style="fill:#eec1bb"></path><path d="M365,180l-6,4.78a16.1,16.1,0,0,1,.27,2.74c2.14-.31,5.21-2.63,5.6-4.84A7.57,7.57,0,0,0,365,180Z" style="opacity:0.2"></path><path d="M373.33,166.74c-1.51,8-2,11.42-6.55,15.26-6.87,5.78-16.32,2.73-17.22-5.44-.82-7.35,1.78-19.22,10-21.86A10.44,10.44,0,0,1,373.33,166.74Z" style="fill:#eec1bb"></path><path d="M366.44,161c4.42,5.7-4.66,12.27,4.42,11.89s5.39-13.21,0-16.12S366.44,161,366.44,161Z" style="fill:#263238"></path><path d="M362.58,168.07c-.1.68-.53,1.2-1,1.17s-.71-.61-.61-1.28.52-1.2,1-1.17S362.68,167.39,362.58,168.07Z" style="fill:#263238"></path><path d="M354.4,167.59c-.1.68-.53,1.2-1,1.17s-.7-.61-.61-1.29.53-1.2,1-1.17S354.49,166.91,354.4,167.59Z" style="fill:#263238"></path><path d="M354,166.36l-1.52-.59S353.08,167.1,354,166.36Z" style="fill:#263238"></path><path d="M354.57,168.87a19.93,19.93,0,0,1-3,4.15,2.74,2.74,0,0,0,2.31.63Z" style="fill:#d4827d"></path><path d="M374.1,174.46a5.58,5.58,0,0,1-3.4,3c-1.87.49-2.67-1.65-2.05-3.78.56-1.92,2.2-4.49,4-4S375,172.58,374.1,174.46Z" style="fill:#eec1bb"></path><path d="M362.92,164.43a.39.39,0,0,1-.28-.12,2.94,2.94,0,0,0-2.59-1,.36.36,0,0,1-.44-.31.44.44,0,0,1,.34-.47,3.65,3.65,0,0,1,3.29,1.22.41.41,0,0,1,0,.57A.43.43,0,0,1,362.92,164.43Z" style="fill:#263238"></path><path d="M350.62,163.7a.41.41,0,0,1-.28-.09.39.39,0,0,1,0-.56,4.17,4.17,0,0,1,3.39-1.51.36.36,0,0,1,.31.44.43.43,0,0,1-.46.35,3.32,3.32,0,0,0-2.67,1.22A.43.43,0,0,1,350.62,163.7Z" style="fill:#263238"></path><path d="M362.16,166.84l-1.53-.59S361.26,167.58,362.16,166.84Z" style="fill:#263238"></path><path d="M354,175.84s1.71,1.1,1.07,2S353.42,176.91,354,175.84Z" style="fill:#263238"></path><path d="M364.19,156.54s1.47,7.06,6.21,10.25,6,.74,6,.74,2.17-7.61-4.16-11.51c0,0-.26-2.55-6.4-4.09s-14.71,1-14.84,8.89a10.39,10.39,0,0,1,4.93-.19,10.93,10.93,0,0,1,6.17-4.61,11,11,0,0,0-4.38,4.8S360.48,157,364.19,156.54Z" style="fill:#263238"></path><path d="M368.8,415.88h-1.39l-.38-1.72-4.6,2.08H350.78s-1.85-1.86,3.69-3.35a3.85,3.85,0,0,0,.79-.3c3-1.39,7.17-6.07,7.17-6.07h6.39a7.39,7.39,0,0,1,.53.92C370.05,408.85,371.25,411.8,368.8,415.88Z" style="fill:#263238"></path><path d="M369.35,407.44v0c-.85-.94-4.69,3.19-7.5,4.6-2.51,1.25-5.34,1.8-6.59.53,3-1.39,7.61-7.44,7.61-7.44H368S369.05,406.84,369.35,407.44Z" style="fill:#ffc2bc"></path><path d="M320.27,415.88h-1.39l-.39-1.72-4.6,2.08H302.24s-1.85-1.86,3.7-3.35a4,4,0,0,0,.78-.3c3-1.39,7.17-6.07,7.17-6.07h6.4a8.47,8.47,0,0,1,.52.92C321.51,408.85,322.71,411.8,320.27,415.88Z" style="fill:#263238"></path><path d="M320.81,407.44v0c-.84-.94-4.69,3.19-7.5,4.6-2.51,1.25-5.34,1.8-6.59.53,3-1.39,7.62-7.44,7.62-7.44h5.14S320.51,406.84,320.81,407.44Z" style="fill:#ffc2bc"></path><path d="M341.51,244h33.1l.89,4.26s12.16,16.84,6,58.8c0,0-26.63,3.07-51.7-2.31,0,0,5.63-43.11,11.51-57.18Z" style="fill:#263238"></path><polygon points="364.74 247.69 375.84 247.69 375.17 244.53 364.74 244.53 364.74 247.69" style="fill:#263238"></polygon><polygon points="344.56 244.53 341.24 244.53 340.95 247.69 344.56 247.69 344.56 244.53" style="fill:#263238"></polygon><rect x="345.67" y="244.53" width="17.99" height="3.17" style="fill:#263238"></rect><polygon points="364.74 247.69 375.84 247.69 375.17 244.53 364.74 244.53 364.74 247.69" style="fill:#fff;isolation:isolate;opacity:0.6000000000000001"></polygon><polygon points="344.56 244.53 341.24 244.53 340.95 247.69 344.56 247.69 344.56 244.53" style="fill:#fff;isolation:isolate;opacity:0.6000000000000001"></polygon><rect x="345.67" y="244.53" width="17.99" height="3.17" style="fill:#fff;isolation:isolate;opacity:0.6000000000000001"></rect><rect x="350.13" y="244.29" width="6.08" height="3.65" rx="0.54" style="fill:#fff"></rect><path d="M341.74,180.24l-1.62,1.94a3,3,0,0,0-.59,2.64l1.13,4.31a5.49,5.49,0,0,0,3.37,3.75l1,.39c2.91-3,3.82-8.48,3.82-8.48l.43-1.52a2.45,2.45,0,0,0-1.63-3.08l-3-.89A2.83,2.83,0,0,0,341.74,180.24Z" style="fill:#eec1bb"></path><path d="M342.57,180.39a27.54,27.54,0,0,0,1.08-8.38,1.4,1.4,0,0,1,1.75,1c.43,1.35,0,7.42,0,7.42Z" style="fill:#eec1bb"></path><path d="M384.81,200.84a115.68,115.68,0,0,1,14.48,17.68c4,9.12-9.57,21.1-15.86,26.3a2.57,2.57,0,0,1-3.63-3.55c1.31-1.75,2.69-3.56,4-5.39a61.69,61.69,0,0,0,6.47-10.76,6.5,6.5,0,0,0,.69-2.86c0-.08-.06.06,0,.31l.52.83L388,219.51c-3.08-3.42-7.34-8-10.47-11.41-4.45-4.94,2.33-11.7,7.27-7.26Z" style="fill:#ebc0bb"></path><path d="M379.94,196.61s7.44,3.85,17.71,18.17l-8.16,6.65L377.06,211a17.59,17.59,0,0,1-1.22-9.32C376.73,197,379.94,196.61,379.94,196.61Z" style="fill:#407BFF"></path><polygon points="388.33 220.95 398.41 212.99 399.95 217.4 390.36 223.16 388.33 220.95" style="fill:#407BFF"></polygon><polygon points="388.33 220.95 398.41 212.99 399.95 217.4 390.36 223.16 388.33 220.95" style="fill:#fff;isolation:isolate;opacity:0.6000000000000001"></polygon></g></svg>
